<mxfile host="app.diagrams.net" modified="2020-06-23T18:22:45.797Z" agent="5.0 (Macintosh; Intel Mac OS X 10_15_2) AppleWebKit/537.36 (KHTML, like Gecko) Chrome/83.0.4103.106 Safari/537.36" etag="_7G6EvPHsqIsJbjljtXg" version="13.3.1" type="github">
  <diagram id="C5RBs43oDa-KdzZeNtuy" name="Page-1">
    <mxGraphModel dx="1039" dy="496" grid="1" gridSize="10" guides="1" tooltips="1" connect="1" arrows="1" fold="1" page="1" pageScale="1" pageWidth="827" pageHeight="1169" math="0" shadow="0">
      <root>
        <mxCell id="WIyWlLk6GJQsqaUBKTNV-0" />
        <mxCell id="WIyWlLk6GJQsqaUBKTNV-1" parent="WIyWlLk6GJQsqaUBKTNV-0" />
        <mxCell id="Id9Vc4TAqnPLpu0wvonf-2" style="edgeStyle=orthogonalEdgeStyle;rounded=0;orthogonalLoop=1;jettySize=auto;html=1;exitX=0.5;exitY=1;exitDx=0;exitDy=0;entryX=0.5;entryY=0;entryDx=0;entryDy=0;" edge="1" parent="WIyWlLk6GJQsqaUBKTNV-1" source="Id9Vc4TAqnPLpu0wvonf-0" target="Id9Vc4TAqnPLpu0wvonf-1">
          <mxGeometry relative="1" as="geometry" />
        </mxCell>
        <mxCell id="Id9Vc4TAqnPLpu0wvonf-0" value="Headache" style="rhombus;whiteSpace=wrap;html=1;" vertex="1" parent="WIyWlLk6GJQsqaUBKTNV-1">
          <mxGeometry x="374" y="20" width="80" height="80" as="geometry" />
        </mxCell>
        <mxCell id="Id9Vc4TAqnPLpu0wvonf-4" value="" style="edgeStyle=orthogonalEdgeStyle;rounded=0;orthogonalLoop=1;jettySize=auto;html=1;" edge="1" parent="WIyWlLk6GJQsqaUBKTNV-1" source="Id9Vc4TAqnPLpu0wvonf-1" target="Id9Vc4TAqnPLpu0wvonf-3">
          <mxGeometry relative="1" as="geometry" />
        </mxCell>
        <mxCell id="Id9Vc4TAqnPLpu0wvonf-6" value="" style="edgeStyle=orthogonalEdgeStyle;rounded=0;orthogonalLoop=1;jettySize=auto;html=1;" edge="1" parent="WIyWlLk6GJQsqaUBKTNV-1" source="Id9Vc4TAqnPLpu0wvonf-1">
          <mxGeometry relative="1" as="geometry">
            <mxPoint x="559.9655172413793" y="260" as="targetPoint" />
          </mxGeometry>
        </mxCell>
        <mxCell id="Id9Vc4TAqnPLpu0wvonf-1" value="New Headache?" style="rounded=0;whiteSpace=wrap;html=1;" vertex="1" parent="WIyWlLk6GJQsqaUBKTNV-1">
          <mxGeometry x="354" y="130" width="120" height="60" as="geometry" />
        </mxCell>
        <mxCell id="Id9Vc4TAqnPLpu0wvonf-3" value="New Headache?" style="rounded=0;whiteSpace=wrap;html=1;" vertex="1" parent="WIyWlLk6GJQsqaUBKTNV-1">
          <mxGeometry x="210" y="260" width="120" height="60" as="geometry" />
        </mxCell>
        <mxCell id="Id9Vc4TAqnPLpu0wvonf-7" value="Yes" style="text;html=1;strokeColor=none;fillColor=none;align=center;verticalAlign=middle;whiteSpace=wrap;rounded=0;" vertex="1" parent="WIyWlLk6GJQsqaUBKTNV-1">
          <mxGeometry x="230" y="180" width="40" height="20" as="geometry" />
        </mxCell>
        <mxCell id="Id9Vc4TAqnPLpu0wvonf-8" value="No" style="text;html=1;strokeColor=none;fillColor=none;align=center;verticalAlign=middle;whiteSpace=wrap;rounded=0;" vertex="1" parent="WIyWlLk6GJQsqaUBKTNV-1">
          <mxGeometry x="570" y="180" width="40" height="20" as="geometry" />
        </mxCell>
        <mxCell id="Id9Vc4TAqnPLpu0wvonf-11" style="edgeStyle=orthogonalEdgeStyle;rounded=0;orthogonalLoop=1;jettySize=auto;html=1;exitX=0.5;exitY=1;exitDx=0;exitDy=0;entryX=0.5;entryY=0;entryDx=0;entryDy=0;" edge="1" parent="WIyWlLk6GJQsqaUBKTNV-1" source="Id9Vc4TAqnPLpu0wvonf-9" target="Id9Vc4TAqnPLpu0wvonf-10">
          <mxGeometry relative="1" as="geometry" />
        </mxCell>
        <mxCell id="Id9Vc4TAqnPLpu0wvonf-9" value="Chronic headache" style="rhombus;whiteSpace=wrap;html=1;" vertex="1" parent="WIyWlLk6GJQsqaUBKTNV-1">
          <mxGeometry x="520" y="260" width="80" height="80" as="geometry" />
        </mxCell>
        <mxCell id="Id9Vc4TAqnPLpu0wvonf-13" value="" style="edgeStyle=orthogonalEdgeStyle;rounded=0;orthogonalLoop=1;jettySize=auto;html=1;" edge="1" parent="WIyWlLk6GJQsqaUBKTNV-1" source="Id9Vc4TAqnPLpu0wvonf-10">
          <mxGeometry relative="1" as="geometry">
            <mxPoint x="434.0344827586207" y="460.0000000000001" as="targetPoint" />
          </mxGeometry>
        </mxCell>
        <mxCell id="Id9Vc4TAqnPLpu0wvonf-15" value="" style="edgeStyle=orthogonalEdgeStyle;rounded=0;orthogonalLoop=1;jettySize=auto;html=1;" edge="1" parent="WIyWlLk6GJQsqaUBKTNV-1" source="Id9Vc4TAqnPLpu0wvonf-10">
          <mxGeometry relative="1" as="geometry">
            <mxPoint x="689.9655172413793" y="460.0000000000001" as="targetPoint" />
          </mxGeometry>
        </mxCell>
        <mxCell id="Id9Vc4TAqnPLpu0wvonf-10" value="New Features?" style="rounded=0;whiteSpace=wrap;html=1;" vertex="1" parent="WIyWlLk6GJQsqaUBKTNV-1">
          <mxGeometry x="500" y="380" width="120" height="60" as="geometry" />
        </mxCell>
        <mxCell id="Id9Vc4TAqnPLpu0wvonf-16" value="Variant 6" style="rhombus;whiteSpace=wrap;html=1;" vertex="1" parent="WIyWlLk6GJQsqaUBKTNV-1">
          <mxGeometry x="394" y="560" width="80" height="80" as="geometry" />
        </mxCell>
        <mxCell id="Id9Vc4TAqnPLpu0wvonf-17" value="Variant 7" style="rhombus;whiteSpace=wrap;html=1;" vertex="1" parent="WIyWlLk6GJQsqaUBKTNV-1">
          <mxGeometry x="650" y="450" width="80" height="80" as="geometry" />
        </mxCell>
        <mxCell id="Id9Vc4TAqnPLpu0wvonf-18" value="No" style="text;html=1;strokeColor=none;fillColor=none;align=center;verticalAlign=middle;whiteSpace=wrap;rounded=0;" vertex="1" parent="WIyWlLk6GJQsqaUBKTNV-1">
          <mxGeometry x="420" y="390" width="40" height="20" as="geometry" />
        </mxCell>
        <mxCell id="Id9Vc4TAqnPLpu0wvonf-19" value="Yes" style="text;html=1;strokeColor=none;fillColor=none;align=center;verticalAlign=middle;whiteSpace=wrap;rounded=0;" vertex="1" parent="WIyWlLk6GJQsqaUBKTNV-1">
          <mxGeometry x="660" y="390" width="40" height="20" as="geometry" />
        </mxCell>
        <mxCell id="Id9Vc4TAqnPLpu0wvonf-21" style="edgeStyle=orthogonalEdgeStyle;rounded=0;orthogonalLoop=1;jettySize=auto;html=1;entryX=0.5;entryY=0;entryDx=0;entryDy=0;" edge="1" parent="WIyWlLk6GJQsqaUBKTNV-1" source="Id9Vc4TAqnPLpu0wvonf-20" target="Id9Vc4TAqnPLpu0wvonf-16">
          <mxGeometry relative="1" as="geometry" />
        </mxCell>
        <mxCell id="Id9Vc4TAqnPLpu0wvonf-22" style="edgeStyle=orthogonalEdgeStyle;rounded=0;orthogonalLoop=1;jettySize=auto;html=1;" edge="1" parent="WIyWlLk6GJQsqaUBKTNV-1" source="Id9Vc4TAqnPLpu0wvonf-20" target="Id9Vc4TAqnPLpu0wvonf-17">
          <mxGeometry relative="1" as="geometry" />
        </mxCell>
        <mxCell id="Id9Vc4TAqnPLpu0wvonf-20" value="Neurologic deficit" style="rounded=0;whiteSpace=wrap;html=1;" vertex="1" parent="WIyWlLk6GJQsqaUBKTNV-1">
          <mxGeometry x="374" y="460" width="120" height="60" as="geometry" />
        </mxCell>
        <mxCell id="Id9Vc4TAqnPLpu0wvonf-23" value="No" style="text;html=1;strokeColor=none;fillColor=none;align=center;verticalAlign=middle;whiteSpace=wrap;rounded=0;" vertex="1" parent="WIyWlLk6GJQsqaUBKTNV-1">
          <mxGeometry x="440" y="530" width="40" height="20" as="geometry" />
        </mxCell>
        <mxCell id="Id9Vc4TAqnPLpu0wvonf-24" value="Yes" style="text;html=1;strokeColor=none;fillColor=none;align=center;verticalAlign=middle;whiteSpace=wrap;rounded=0;" vertex="1" parent="WIyWlLk6GJQsqaUBKTNV-1">
          <mxGeometry x="550" y="500" width="40" height="20" as="geometry" />
        </mxCell>
      </root>
    </mxGraphModel>
  </diagram>
</mxfile>
